<?xml version="1.0" encoding="utf-8"?>
<!-- Generator: Adobe Illustrator 23.0.1, SVG Export Plug-In . SVG Version: 6.00 Build 0)  -->
<svg version="1.2" baseProfile="tiny" id="Layer_1" xmlns="http://www.w3.org/2000/svg" xmlns:xlink="http://www.w3.org/1999/xlink"
	 x="0px" y="0px" viewBox="0 0 800 267" xml:space="preserve">
<g>
	<path fill="#8C8C8C" d="M732.5,123.9c-2.8,9.4-9.9,14.7-18.1,18.9c-19.8,10-41.2,14.9-62.8,19.2c-50.8,10-102.1,15.6-153.8,17.5
		c-49.5,1.9-99.1,2.4-148.6,3.2c-12.1,0.2-24.3-0.7-36.4-1c-2.1-0.1-4.1,0-6.3,1c47.1,7.2,94.2,14.4,141.6,21.6
		c0.9-2.6,1.7-4.9,2.6-7.7c26.9,10.8,53.7,21.6,80.5,32.4c-0.1,0.4-0.1,0.9-0.2,1.3c-28.7,1-57.4,1.9-86.9,2.9
		c0.4-3.5,0.7-6.6,1.1-10.4c-10.7-2.1-21.4-4.3-32.1-6.3c-56-10.6-111.9-21.4-167.9-31.8c-42-7.8-84.2-14.5-126.1-23
		c-19.9-4-39.1-11-58.7-16.8c-1.8-0.5-3.5-1.6-5.2-2.5c-8.1-4.1-14.9-9.5-17.7-18.6c0-0.4,0-0.8,0-1.2c3.7-9.2,11.3-13.9,20.4-16.8
		c-1,0.8-2.1,1.7-3.1,2.5c-1.2,0.9-2.6,1.7-3.7,2.8c-5.6,5.1-6.2,10.8-0.1,15.1c6.6,4.7,14,9.3,21.8,11.3
		c24.2,6.1,48.5,12.8,73.2,15.8c43.2,5.4,86.6,9.7,130,11.7c52,2.4,104.1,3.3,156.1,2.2c49.8-1.1,99.6-5,149.4-8.7
		c35.5-2.6,70.8-7.9,105.2-17.5c8.5-2.4,16.6-6.1,24.8-9.3c1.9-0.8,3.7-2.1,5.4-3.4c8.3-6.5,8.2-12.9-0.3-19
		c-1.5-1.1-3.1-2.2-4.4-3.6c9,3,16.5,7.7,20.2,17C732.5,123.1,732.5,123.5,732.5,123.9z"/>
	<path fill="#8C8C8C" d="M616.3,99.9c5.6,4.9,5.5,10.2,2.8,16c-4.4,9.2-8.4,18.6-12.8,27.8c-0.7,1.5-2.9,3.2-4.4,3.3
		c-8.5,0.3-16.9,0.2-26.3,0.2c1-2.4,1.7-4.3,2.5-6.1c5-11,10.1-22,15-33.1c2.3-5.3,0.5-8-5.3-8.3c-11.4-0.6-11.4-0.6-15.9,9.9
		c-4.8,10.9-9.7,21.8-14.2,32.8c-1.6,3.9-3.7,5.1-7.8,4.9c-7.7-0.3-15.4-0.1-24.2-0.1c2.7-6.1,5.1-11.6,7.5-17.1
		c7.4-16.7,14.8-33.4,22-50.2c1.4-3.3,3.1-4.6,6.8-4.5c13.1,0.2,26.2,0.1,39.3,0.1c5.4,0,13-8.6,12.1-13.8c-0.2-1-1.6-2.2-2.6-2.5
		c-2.4-0.7-4.9-1.1-7.3-1.1c-12.5-0.1-25,0-38.4,0c3.5-7.9,6.5-15.2,9.9-22.2c0.5-1.1,2.8-1.9,4.2-1.9c20.2-0.1,40.5-0.2,60.7,0
		c9.9,0.1,13.4,6,9.4,14.9c-5.4,11.9-11,23.7-16.1,35.8C630,92.2,625.6,98.2,616.3,99.9z"/>
	<path fill="#8C8C8C" d="M229.8,146.5c6.5-7.6,12.7-14.9,19-22.1c12.7-14.7,25.6-29.4,38.2-44.1c2.3-2.7,4.5-4.1,8.3-3.8
		c6.3,0.4,12.7,0.1,20.6,0.1c-13,14.9-25.1,28.9-37.9,43.6c11.4,0,21.8,0,32.6,0c5.8-18.1,11.7-36.2,17.1-54.4
		c0.5-1.7-1.3-5.2-3.1-6.2c-2.3-1.4-5.5-1.5-8.3-1.6c-8.6-0.2-17.2-0.1-26.7-0.1c3.5-8,6.5-15.2,9.9-22.2c0.6-1.1,3.1-1.8,4.8-1.8
		c16.4-0.1,32.8-0.1,49.2-0.1c8.4,0,11.6,4.2,9.1,12.4c-3.5,11.8-7.4,23.5-11.2,35.2c-6.6,20.5-13.1,41-19.7,61.5
		c-0.8,2.4-1.3,4.4-4.8,4.3c-31.6-0.2-63.3-0.1-94.9-0.1C231.5,147,231,146.8,229.8,146.5z"/>
	<path fill="#8C8C8C" d="M341.1,147.1c4-8.7,7.6-16.7,11.6-24.5c0.6-1.3,3.4-2,5.2-2c12.3-0.2,24.7,0,37-0.2
		c3.6-0.1,7.3-0.7,10.7-1.8c8.8-2.9,11-13.1,4.2-19.4c-3-2.8-6.9-4.9-10.7-6.6C384.7,86,380,78.1,381.8,62.5
		c0.3-2.9,1.1-5.7,1.7-8.5c2.9-11.8,10-19.4,22.4-19.8c17.8-0.6,35.7-0.1,54.3-0.1c-3.1,7.5-5.9,14.6-9.2,21.5
		c-0.6,1.3-3.3,2.1-5.1,2.2c-8.6,0.5-17.3,0.5-26,0.9c-4.1,0.2-6.7,1.9-7.4,6.5c-0.7,4.6,1.5,7,5.1,8.6c3.8,1.7,7.9,3.1,11.8,4.6
		c10.1,3.8,15.4,11.1,15.6,21.9c0.6,23.7-16.5,43.3-40.3,46.5c-2.1,0.3-4.2,0.3-6.4,0.3C379.6,147.1,360.7,147.1,341.1,147.1z"/>
	<path fill="#8C8C8C" d="M541.7,75.3c-3.3,7.8-6.1,14.9-9.4,21.8c-0.6,1.3-3.3,2.3-5,2.4c-9.6,0.2-19.3,0.3-28.9,0
		c-3.6-0.1-5.6,0.8-7,4.3c-2,5.4-4.6,10.5-7.2,16.4c12.7,0,24.7,0,37.8,0c-3.8,8.8-7.1,16.9-10.7,24.8c-0.5,1-2.3,1.9-3.6,1.9
		c-21.4,0.1-42.8,0.1-64.9,0.1c3.8-8.7,7.4-17,11-25.2c6.3-14.3,12.5-28.5,19-42.7c0.8-1.7,3-3.7,4.7-3.7
		C498.6,75.2,519.6,75.3,541.7,75.3z"/>
	<path fill="#8C8C8C" d="M248.8,75.3c-3.3,7.8-6.2,15.1-9.6,22.2c-0.6,1.2-3,2-4.6,2c-9.4,0.2-18.9,0.3-28.3,0
		c-4.2-0.1-6.4,1-8.1,5.1c-5.3,13-11.3,25.7-16.8,38.6c-1.2,2.9-2.6,4.1-5.9,4c-8.3-0.3-16.5-0.1-25.5-0.1
		c3.2-7.3,6.2-14.1,9.2-20.9c6.9-15.6,13.7-31.3,20.8-46.9c0.7-1.6,2.7-3.7,4.1-3.8C205.2,75.2,226.6,75.3,248.8,75.3z"/>
	<path fill="#8C8C8C" d="M189.4,57.9c3.4-7.8,6.4-15,9.7-22.1c0.5-1,2.4-1.9,3.6-2c21.2-0.1,42.3-0.1,64.4-0.1
		c-3.3,7.7-6.2,15-9.4,22.1c-0.5,1-2.3,1.9-3.5,1.9C232.8,57.9,211.5,57.9,189.4,57.9z"/>
	<path fill="#8C8C8C" d="M482.4,57.9c3.4-7.8,6.4-15,9.7-22.1c0.5-1,2.4-1.9,3.6-2c21.2-0.1,42.3-0.1,64.4-0.1
		c-3.3,7.7-6.2,15-9.4,22.1c-0.5,1-2.3,1.9-3.5,1.9C525.8,57.9,504.4,57.9,482.4,57.9z"/>
</g>
</svg>
